<svg id="visual" viewBox="0 0 960 540" width="960" height="540" xmlns="http://www.w3.org/2000/svg" xmlns:xlink="http://www.w3.org/1999/xlink" version="1.1"><rect x="0" y="0" width="960" height="540" fill="#242424"></rect><defs><linearGradient id="grad1_0" x1="43.8%" y1="100%" x2="100%" y2="0%"><stop offset="14.444444444444446%" stop-color="#242424" stop-opacity="1"></stop><stop offset="85.55555555555554%" stop-color="#242424" stop-opacity="1"></stop></linearGradient></defs><defs><linearGradient id="grad2_0" x1="0%" y1="100%" x2="56.3%" y2="0%"><stop offset="14.444444444444446%" stop-color="#242424" stop-opacity="1"></stop><stop offset="85.55555555555554%" stop-color="#242424" stop-opacity="1"></stop></linearGradient></defs><g transform="translate(960, 540)"><path d="M-378 0C-379.3 -34.9 -380.7 -69.8 -365.1 -97.8C-349.6 -125.8 -317.1 -146.9 -296.2 -171C-275.3 -195.1 -265.9 -222.1 -248.9 -248.9C-231.9 -275.7 -207.2 -302.4 -177 -306.6C-146.8 -310.7 -110.9 -292.3 -80.5 -300.4C-50.1 -308.5 -25 -343.3 0 -378L0 0Z" fill="#eba63e"></path></g><g transform="translate(0, 0)"><path d="M378 0C339.6 24.6 301.3 49.2 291.7 78.2C282.2 107.1 301.5 140.4 301.4 174C301.3 207.6 281.9 241.7 251 251C220.2 260.4 177.9 245 153 265C128.1 285 120.4 340.4 97.8 365.1C75.2 389.8 37.6 383.9 0 378L0 0Z" fill="#eba63e"></path></g></svg>