<svg id="visual" viewBox="0 0 960 300" width="960" height="300" xmlns="http://www.w3.org/2000/svg" xmlns:xlink="http://www.w3.org/1999/xlink" version="1.1"><rect x="0" y="0" width="960" height="300" fill="#242424"></rect><path d="M0 122L17.8 118.3C35.7 114.7 71.3 107.3 106.8 102.7C142.3 98 177.7 96 213.2 101.8C248.7 107.7 284.3 121.3 320 126.3C355.7 131.3 391.3 127.7 426.8 124.3C462.3 121 497.7 118 533.2 105.5C568.7 93 604.3 71 640 73.2C675.7 75.3 711.3 101.7 746.8 106.3C782.3 111 817.7 94 853.2 92C888.7 90 924.3 103 942.2 109.5L960 116L960 301L942.2 301C924.3 301 888.7 301 853.2 301C817.7 301 782.3 301 746.8 301C711.3 301 675.7 301 640 301C604.3 301 568.7 301 533.2 301C497.7 301 462.3 301 426.8 301C391.3 301 355.7 301 320 301C284.3 301 248.7 301 213.2 301C177.7 301 142.3 301 106.8 301C71.3 301 35.7 301 17.8 301L0 301Z" fill="#ee6a6a"></path><path d="M0 154L17.8 152C35.7 150 71.3 146 106.8 150.3C142.3 154.7 177.7 167.3 213.2 172.2C248.7 177 284.3 174 320 172.7C355.7 171.3 391.3 171.7 426.8 164.3C462.3 157 497.7 142 533.2 140.5C568.7 139 604.3 151 640 148.3C675.7 145.7 711.3 128.3 746.8 124C782.3 119.7 817.7 128.3 853.2 133.8C888.7 139.3 924.3 141.7 942.2 142.8L960 144L960 301L942.2 301C924.3 301 888.7 301 853.2 301C817.7 301 782.3 301 746.8 301C711.3 301 675.7 301 640 301C604.3 301 568.7 301 533.2 301C497.7 301 462.3 301 426.8 301C391.3 301 355.7 301 320 301C284.3 301 248.7 301 213.2 301C177.7 301 142.3 301 106.8 301C71.3 301 35.7 301 17.8 301L0 301Z" fill="#bf4866"></path><path d="M0 182L17.8 182.7C35.7 183.3 71.3 184.7 106.8 184.7C142.3 184.7 177.7 183.3 213.2 187.3C248.7 191.3 284.3 200.7 320 194.5C355.7 188.3 391.3 166.7 426.8 160.5C462.3 154.3 497.7 163.7 533.2 168.8C568.7 174 604.3 175 640 172.7C675.7 170.3 711.3 164.7 746.8 159C782.3 153.3 817.7 147.7 853.2 155.5C888.7 163.3 924.3 184.7 942.2 195.3L960 206L960 301L942.2 301C924.3 301 888.7 301 853.2 301C817.7 301 782.3 301 746.8 301C711.3 301 675.7 301 640 301C604.3 301 568.7 301 533.2 301C497.7 301 462.3 301 426.8 301C391.3 301 355.7 301 320 301C284.3 301 248.7 301 213.2 301C177.7 301 142.3 301 106.8 301C71.3 301 35.7 301 17.8 301L0 301Z" fill="#8c2d5d"></path><path d="M0 215L17.8 214.8C35.7 214.7 71.3 214.3 106.8 217.7C142.3 221 177.7 228 213.2 229.3C248.7 230.7 284.3 226.3 320 220.8C355.7 215.3 391.3 208.7 426.8 209C462.3 209.3 497.7 216.7 533.2 213.8C568.7 211 604.3 198 640 197.7C675.7 197.3 711.3 209.7 746.8 213C782.3 216.3 817.7 210.7 853.2 213.2C888.7 215.7 924.3 226.3 942.2 231.7L960 237L960 301L942.2 301C924.3 301 888.7 301 853.2 301C817.7 301 782.3 301 746.8 301C711.3 301 675.7 301 640 301C604.3 301 568.7 301 533.2 301C497.7 301 462.3 301 426.8 301C391.3 301 355.7 301 320 301C284.3 301 248.7 301 213.2 301C177.7 301 142.3 301 106.8 301C71.3 301 35.7 301 17.8 301L0 301Z" fill="#57194d"></path><path d="M0 238L17.8 240.5C35.7 243 71.3 248 106.8 254C142.3 260 177.7 267 213.2 263.7C248.7 260.3 284.3 246.7 320 240C355.7 233.3 391.3 233.7 426.8 236.8C462.3 240 497.7 246 533.2 250.3C568.7 254.7 604.3 257.3 640 258.7C675.7 260 711.3 260 746.8 257.8C782.3 255.7 817.7 251.3 853.2 248.8C888.7 246.3 924.3 245.7 942.2 245.3L960 245L960 301L942.2 301C924.3 301 888.7 301 853.2 301C817.7 301 782.3 301 746.8 301C711.3 301 675.7 301 640 301C604.3 301 568.7 301 533.2 301C497.7 301 462.3 301 426.8 301C391.3 301 355.7 301 320 301C284.3 301 248.7 301 213.2 301C177.7 301 142.3 301 106.8 301C71.3 301 35.7 301 17.8 301L0 301Z" fill="#250936"></path></svg>