<svg id="visual" viewBox="0 0 960 300" width="960" height="300" xmlns="http://www.w3.org/2000/svg" xmlns:xlink="http://www.w3.org/1999/xlink" version="1.1"><rect x="0" y="0" width="960" height="300" fill="#242424"></rect><path d="M0 187L26.7 191.3C53.3 195.7 106.7 204.3 160 213.3C213.3 222.3 266.7 231.7 320 236.3C373.3 241 426.7 241 480 240.5C533.3 240 586.7 239 640 228.7C693.3 218.3 746.7 198.7 800 195.5C853.3 192.3 906.7 205.7 933.3 212.3L960 219L960 0L933.3 0C906.7 0 853.3 0 800 0C746.7 0 693.3 0 640 0C586.7 0 533.3 0 480 0C426.7 0 373.3 0 320 0C266.7 0 213.3 0 160 0C106.7 0 53.3 0 26.7 0L0 0Z" fill="#ee6a6a"></path><path d="M0 175L26.7 168.7C53.3 162.3 106.7 149.7 160 147.2C213.3 144.7 266.7 152.3 320 155.7C373.3 159 426.7 158 480 163C533.3 168 586.7 179 640 179.5C693.3 180 746.7 170 800 171.7C853.3 173.3 906.7 186.7 933.3 193.3L960 200L960 0L933.3 0C906.7 0 853.3 0 800 0C746.7 0 693.3 0 640 0C586.7 0 533.3 0 480 0C426.7 0 373.3 0 320 0C266.7 0 213.3 0 160 0C106.7 0 53.3 0 26.7 0L0 0Z" fill="#af3e64"></path><path d="M0 85L26.7 89.3C53.3 93.7 106.7 102.3 160 112C213.3 121.7 266.7 132.3 320 137C373.3 141.7 426.7 140.3 480 131.2C533.3 122 586.7 105 640 101.2C693.3 97.3 746.7 106.7 800 107.5C853.3 108.3 906.7 100.7 933.3 96.8L960 93L960 0L933.3 0C906.7 0 853.3 0 800 0C746.7 0 693.3 0 640 0C586.7 0 533.3 0 480 0C426.7 0 373.3 0 320 0C266.7 0 213.3 0 160 0C106.7 0 53.3 0 26.7 0L0 0Z" fill="#691f53"></path><path d="M0 85L26.7 82.8C53.3 80.7 106.7 76.3 160 67.8C213.3 59.3 266.7 46.7 320 42C373.3 37.3 426.7 40.7 480 49C533.3 57.3 586.7 70.7 640 72.7C693.3 74.7 746.7 65.3 800 57C853.3 48.7 906.7 41.3 933.3 37.7L960 34L960 0L933.3 0C906.7 0 853.3 0 800 0C746.7 0 693.3 0 640 0C586.7 0 533.3 0 480 0C426.7 0 373.3 0 320 0C266.7 0 213.3 0 160 0C106.7 0 53.3 0 26.7 0L0 0Z" fill="#250936"></path></svg>